<svg xmlns="http://www.w3.org/2000/svg" viewBox="0 0 86.01 112.26"><path d="M62.52,22c-22.64-10.63-40.06-.77-48.67,10.92S4.56,58.73,11,71.18A39.53,39.53,0,0,0,32.47,89.72a58.32,58.32,0,0,0-.68,5.93c-3.06-5.43-13.31-4.59-12.75,2s12.33,6,12.33,6c3.36,6.37,7.19,8.46,11.59,6.31s.82-7.53.82-7.53S71.05,96.29,79.86,77C89,57,85.16,32.65,62.52,22Z" style="fill:#fff;stroke:#131d34;stroke-linecap:round;stroke-linejoin:round;stroke-width:3.08610138230433px"/><path d="M34.75,38.65c.89,2.24,5.6,1.31,4.65-2.45.8,3.63,5.36,2.46,5.23.36" style="fill:#fff;stroke:#131d34;stroke-linecap:round;stroke-linejoin:round;stroke-width:1.30511981899598px"/><path d="M38.63,33.62c5.72-1.44,3.65,2.64,1,3.35S32.92,35.06,38.63,33.62Z" style="fill:#131d34"/><polygon points="9.05 19.31 16.45 30.78 43.04 18.39 39.38 5.13 9.05 19.31" style="fill:#2bb8d9;stroke:#131d34;stroke-linecap:round;stroke-linejoin:round;stroke-width:2.61023963799197px"/><polygon points="1.3 21.68 27.94 20.61 47.62 1.3 20.89 2.57 1.3 21.68" style="fill:#2bb8d9;stroke:#131d34;stroke-linecap:round;stroke-linejoin:round;stroke-width:2.61023963799197px"/><polygon points="22.34 13.49 27.86 11.38 23.24 8.27 22.34 13.49" style="fill:#fff"/><line x1="23.24" y1="38.22" x2="26.21" y2="36.48" style="fill:#fff;stroke:#131d34;stroke-linecap:round;stroke-linejoin:round;stroke-width:1.30511981899598px"/><line x1="24.23" y1="39.89" x2="27.2" y2="38.16" style="fill:#fff;stroke:#131d34;stroke-linecap:round;stroke-linejoin:round;stroke-width:1.30511981899598px"/><line x1="50.11" y1="30.69" x2="53.55" y2="30.67" style="fill:#fff;stroke:#131d34;stroke-linecap:round;stroke-linejoin:round;stroke-width:1.30511981899598px"/><line x1="50.3" y1="32.57" x2="53.74" y2="32.55" style="fill:#fff;stroke:#131d34;stroke-linecap:round;stroke-linejoin:round;stroke-width:1.30511981899598px"/><path d="M34.08,66.58c8,2.44,13.52-1.55,15.07-4" style="fill:#fff;stroke:#131d34;stroke-linecap:round;stroke-linejoin:round;stroke-width:2.10848125022788px"/><path d="M53.92,51.5l-8.31,3s-6.54-1.89-7.32.44,6.54,13.52,21.28,8.87" style="fill:#fff;stroke:#131d34;stroke-linecap:round;stroke-linejoin:round;stroke-width:2.10848125022788px"/><path d="M44.83,50.62c-4.1,1.55-2.44,5.65,2.44,4.21S50.48,48.51,44.83,50.62Z" style="fill:#fff;stroke:#131d34;stroke-linecap:round;stroke-linejoin:round;stroke-width:2.10848125022788px"/><path d="M77.82,22.13a7.34,7.34,0,0,1,3.77,4.43" style="fill:#fff;stroke:#131d34;stroke-linecap:round;stroke-linejoin:round;stroke-width:1.30511981899598px"/><path d="M82.36,21.35a4.38,4.38,0,0,1,1.55,2.78" style="fill:#fff;stroke:#131d34;stroke-linecap:round;stroke-linejoin:round;stroke-width:1.30511981899598px"/></svg>